<svg xmlns="http://www.w3.org/2000/svg" class="Pos(a) Start(2px) T(4px) Cur(p)" width="26" style="fill:#6001d2;stroke:#6001d2;stroke-width:0;vertical-align:bottom" height="26" viewBox="0 0 24 27" data-icon="bell-fill"><path d="M23.258 20.424c-.09-.07-.81-.662-1.394-1.7-.114-.2-.45-.914-.503-1.06-.143-.39-.243-.864-.398-1.543-.367-2.33-.34-5.656-.34-5.656 0-.076.003-.15.003-.226 0-4.07-2.926-7.465-6.825-8.28v-.19C13.8.788 12.994 0 12 0s-1.8.79-1.8 1.768v.19c-3.897.815-6.822 4.21-6.822 8.28 0 .076.002.15.004.226 0 0 .023 3.325-.344 5.657-.155.68-.255 1.154-.4 1.545-.053.145-.388.86-.502 1.06-.583 1.037-1.304 1.63-1.394 1.7-.315.24-.452.425-.452.425-.18.227-.29.51-.29.82C0 22.406.607 23 1.354 23c.037 0 .073-.004.11-.005h21.07c.037 0 .075.005.112.005.747 0 1.354-.596 1.354-1.33 0-.308-.108-.593-.29-.82 0 0-.137-.184-.452-.426zM12 27c1.657 0 3-1.343 3-3H9c0 1.657 1.343 3 3 3z"></path></svg>